# AST/ASF file generated using VICON BodyLanguage
# -----------------------------------------------
:version 1.10
:name VICON
:units
  mass 1.0
  length 0.45
  angle deg
:documentation
   .ast/.asf automatically generated from VICON data using
   VICON BodyBuilder and BodyLanguage model FoxedUp or BRILLIANT.MOD
:root
   order TX TY TZ RX RY RZ
   axis XYZ
   position 0 0 0  
   orientation 0 0 0 
:bonedata
  begin
     id 1 
     name lhipjoint
     direction 0.558404 -0.748506 0.357664 
     length 2.4234 
     axis 0 0 0  XYZ
  end
  begin
     id 2 
     name lfemur
     direction 0.34202 -0.939693 0  
     length 7.14567  
     axis 0 0 20  XYZ
    dof rx ry rz
    limits (-160.0 20.0)
           (-70.0 70.0)
           (-60.0 70.0)
  end
  begin
     id 3 
     name ltibia
     direction 0.34202 -0.939693 0   
     length 8.13956   
     axis 0 0 20   XYZ
    dof rx
    limits (-10.0 170.0)
  end
  begin
     id 4 
     name lfoot
     direction 0.0791314 -0.217412 0.972867   
     length 2.00134   
     axis -90 7.62852e-016 20   XYZ
    dof rx rz
    limits (-45.0 90.0)
           (-70.0 20.0)
  end
  begin
     id 5 
     name ltoes
     direction 1.53547e-011 -4.21922e-011 1   
     length 1.00735   
     axis -90 7.62852e-016 20   XYZ
    dof rx
    limits (-90.0 20.0)
  end
  begin
     id 6 
     name rhipjoint
     direction -0.496392 -0.78327 0.374276   
     length 2.31584  
     axis 0 0 0  XYZ 
  end
  begin
     id 7 
     name rfemur
     direction -0.34202 -0.939693 0   
     length 7.47417   
     axis 0 0 -20   XYZ
    dof rx ry rz
    limits (-160.0 20.0)
           (-70.0 70.0)
           (-70.0 60.0)
  end
  begin
     id 8 
     name rtibia
     direction -0.34202 -0.939693 0   
     length 7.69071   
     axis 0 0 -20   XYZ
    dof rx
    limits (-10.0 170.0)
 end
 begin
     id 9 
     name rfoot
     direction -0.103069 -0.28318 0.953512   
     length 2.16135  
     axis -90 -7.62852e-016 -20   XYZ
    dof rx rz
    limits (-45.0 90.0)
           (-20.0 70.0)
  end
  begin
     id 10 
     name rtoes
     direction -1.53581e-011 -4.21904e-011 1   
     length 1.07867   
     axis -90 -7.62852e-016 -20   XYZ
    dof rx
    limits (-90.0 20.0)
  end
  begin
     id 11 
     name lowerback
     direction -0.0258961 0.994776 -0.0987407   
     length 2.19412   
     axis 0 0 0   XYZ
    dof rx ry rz
    limits (-20.0 45.0)
           (-30.0 30.0)
           (-30.0 30.0)
  end
  begin
     id 12 
     name upperback
     direction 0.0402454 0.999185 0.00320666   
     length 2.18445   
     axis 0 0 0   XYZ
    dof rx ry rz
    limits (-20.0 45.0)
           (-30.0 30.0)
           (-30.0 30.0)
  end
  begin
     id 13 
     name thorax
     direction 0.0519376 0.997415 0.0496558   
     length 2.21487   
     axis 0 0 0   XYZ
    dof rx ry rz
    limits (-20.0 45.0)
           (-30.0 30.0)
           (-30.0 30.0)
  end
  begin
     id 14 
     name lowerneck
     direction -0.0921276 0.983211 0.157506   
     length 1.61201   
     axis 0 0 0   XYZ
    dof rx ry rz
    limits (-20.0 45.0)
           (-30.0 30.0)
           (-30.0 30.0)
  end
  begin
     id 15 
     name upperneck
     direction 0.0820814 0.98162 -0.172292   
     length 1.65275   
     axis 0 0 0   XYZ
    dof rx ry rz
    limits (-20.0 45.0)
           (-30.0 30.0)
           (-30.0 30.0)
  end
  begin
     id 16
     name head
     direction 0.0336554 0.996413 -0.0776455  
     length 1.66415  
     axis 0 0 0   XYZ
    dof rx ry rz
    limits (-20.0 45.0)
           (-30.0 30.0)
           (-30.0 30.0)
  end
  begin
     id 17 
     name lclavicle
     direction 0.94696 0.284418 -0.149576  
     length 3.41447  
     axis 0 0 0   XYZ
    dof ry rz
    limits (-20.0 10.0)
           (0.0 20.0)
  end
  begin
     id 18 
     name lhumerus
     direction 1 -0.000130264 -9.81312e-005   
     length 5.19964   
     axis 180 -30 -90   XYZ
    dof rx ry rz
    limits (-60.0 90.0)
           (-90.0 90.0)
           (-90.0 90.0)
  end
  begin
     id 19
     name lradius
     direction 1 -4.48961e-011 1.43854e-026   
     length 3.32189   
     axis 180 -30 -90   XYZ
    dof rx
    limits (-10.0 170.0)
  end
  begin
     id 20
     name lwrist
     direction 1 -4.48958e-011 3.1502e-026   
     length 1.66095   
     axis -1.97692e-014 90 90   XYZ
    dof ry
    limits (-180.0 0.0)
 end
  begin
     id 21 
     name lhand
     direction 1 -4.48927e-011 6.3004e-026   
     length 0.645616   
     axis -4.02019e-014 90 90   XYZ
    dof rx rz
    limits (-90.0 90.0)
           (-45.0 45.0)
  end
  begin
     id 22 
     name lfingers
     direction 1 -4.4904e-011 1.26008e-025   
     length 0.520512   
     axis -8.04039e-014 90 90   XYZ
    dof rx
    limits (0.0 90.0)
  end
  begin
     id 23
     name lthumb
     direction 0.707107 -6.34947e-011 0.707107   
     length 0.747354   
     axis -90 45 2.85299e-015   XYZ
    dof rx rz
    limits (-45.0 45.0)
           (-45.0 45.0)
  end
  begin
     id 24 
     name rclavicle
     direction -0.909391 0.383475 -0.161107   
     length 3.25176  
     axis 0 0 0   XYZ 
    dof ry rz
    limits (-10.0 20.0)
           (-20.0 0.0)
  end
  begin
     id 25 
     name rhumerus
     direction -1 -4.48965e-011 -1.81384e-027  
     length 5.6595   
     axis 180 30 90   XYZ
    dof rx ry rz
    limits (-90.0 60.0)
           (-90.0 90.0)
           (-90.0 90.0)
  end
  begin
     id 26 
     name rradius
     direction -1 -4.48996e-011 -8.09397e-027   
     length 3.37604   
     axis 180 30 90   XYZ
    dof rx
    limits (-10.0 170.0)
  end
  begin
     id 27 
     name rwrist
     direction -1 -4.48927e-011 -1.56669e-026   
     length 1.68802   
     axis 1.21142e-014 -90 -90   XYZ
    dof ry
    limits (-180.0 0.0)
  end
  begin
     id 28
     name rhand
     direction -1 -4.48912e-011 -3.13339e-026   
     length 0.824702   
     axis 1.99937e-014 -90 -90   XYZ
    dof rx rz
    limits (-90.0 90.0)
           (-45.0 45.0)
  end
  begin
     id 29
     name rfingers
     direction -1 -4.49011e-011 -6.26677e-026   
     length 0.664896   
     axis 3.99874e-014 -90 -90   XYZ
    dof rx
    limits (0.0 90.0)
  end
  begin
     id 30
     name rthumb
     direction -0.707107 -6.34931e-011 0.707107   
     length 0.954662   
     axis -90 -45 -2.85299e-015   XYZ
    dof rx rz
    limits (-45.0 45.0)
           (-45.0 45.0)
  end
:hierarchy
  begin
    root lhipjoint rhipjoint lowerback
    lhipjoint lfemur
    lfemur ltibia
    ltibia lfoot
    lfoot ltoes
    rhipjoint rfemur
    rfemur rtibia
    rtibia rfoot
    rfoot rtoes
    lowerback upperback
    upperback thorax
    thorax lowerneck lclavicle rclavicle
    lowerneck upperneck
    upperneck head
    lclavicle lhumerus
    lhumerus lradius
    lradius lwrist
    lwrist lhand lthumb
    lhand lfingers
    rclavicle rhumerus
    rhumerus rradius
    rradius rwrist
    rwrist rhand rthumb
    rhand rfingers
  end

#!OML:ASF F:\VICON\USERDATA\INSTALL\rory3\rory3.ASF
:FULLY-SPECIFIED
:DEGREES
576
root 3.63596 16.8378 -0.615181 8.9421 -25.1543 -22.5219
lowerback 5.77858 0.83577 7.9162
upperback -0.550593 1.97271 12.075
thorax -4.03463 0.886739 8.23886
lowerneck -1.59675 -10.9195 -17.9456
upperneck 30.2158 -19.334 16.2424
head 14.0591 -9.35382 6.77554
rclavicle 3.3899e-014 1.11319e-013
rhumerus -8.36596 -5.68208 -49.0094
rradius 78.4382
rwrist -21.4018
rhand -20.9385 25.203
rfingers 7.12502
rthumb 5.43368 -4.70735
lclavicle 3.3899e-014 1.11319e-013
lhumerus -26.3257 22.0427 0.466056
lradius 34.8955
lwrist -3.74365
lhand -13.921 38.0504
lfingers 7.12502
lthumb 12.2053 67.6743
rfemur 26.2442 4.49182 12.9301
rtibia 54.0475
rfoot 30.0505 -10.8549
rtoes 27.0605
lfemur -45.1884 21.9007 -10.7965
ltibia 47.2765
lfoot -0.509973 4.30856
ltoes 21.4109
577
root 3.56698 16.6943 -0.359896 7.71052 -24.7969 -22.1919
lowerback 6.17239 0.73847 7.64844
upperback -0.565958 1.89322 12.0587
thorax -4.27714 0.854313 8.38312
lowerneck -1.26128 -11.0043 -18.1295
upperneck 30.4358 -19.5482 16.2141
head 14.161 -9.49215 6.78238
rclavicle -2.81405e-014 -1.11319e-014
rhumerus -10.0357 -6.8277 -49.0279
rradius 78.174
rwrist -21.229
rhand -20.4951 25.4018
rfingers 7.12502
rthumb 5.86179 -4.49715
lclavicle -2.81405e-014 -1.11319e-014
lhumerus -25.9427 22.4021 0.691331
lradius 35.6113
lwrist -3.8515
lhand -13.8441 37.5902
lfingers 7.12502
lthumb 12.2794 67.2097
rfemur 26.1871 5.23901 12.1835
rtibia 57.0576
rfoot 29.9068 -11.7711
rtoes 29.1761
lfemur -44.7229 21.7748 -10.952
ltibia 50.0179
lfoot -3.74392 4.94734
ltoes 21.3052
578
root 3.50535 16.5659 -0.109066 6.43289 -24.5136 -21.7644
lowerback 6.73329 0.668014 7.27592
upperback -0.642266 1.87434 12.0343
thorax -4.68876 0.855551 8.57727
lowerneck -0.886118 -11.0445 -18.0988
upperneck 30.8035 -19.6477 15.8802
head 14.2206 -9.58321 6.6542
rclavicle 1.00386e-014 7.63333e-014
rhumerus -11.8231 -8.16009 -49.1326
rradius 77.7379
rwrist -20.4484
rhand -20.2121 25.5654
rfingers 7.12502
rthumb 6.13508 -4.32572
lclavicle 1.00386e-014 7.63333e-014
lhumerus -25.5911 22.9012 1.17945
lradius 36.3566
lwrist -3.964
lhand -14.3907 38.356
lfingers 7.12502
lthumb 11.7523 68.0063
rfemur 25.8462 6.08117 11.3689
rtibia 60.102
rfoot 29.4689 -13.0401
rtoes 31.7483
lfemur -44.2361 21.7339 -11.1715
ltibia 52.6975
lfoot -6.19116 5.42403
ltoes 21.0479
579
root 3.45329 16.4431 0.130425 5.23863 -24.3131 -21.2423
lowerback 7.1436 0.638142 6.9536
upperback -0.592937 1.8636 11.8883
thorax -4.87299 0.85913 8.59888
lowerneck -0.607218 -11.0795 -17.9647
upperneck 31.1466 -19.7783 15.6964
head 14.3064 -9.65819 6.56195
rclavicle 2.37548e-014 -1.90833e-014
rhumerus -13.4505 -9.90847 -49.4433
rradius 77.0736
rwrist -19.4615
rhand -19.4231 25.6036
rfingers 7.12502
rthumb 6.89672 -4.26405
lclavicle 2.37548e-014 -1.90833e-014
lhumerus -25.3262 23.8035 1.75156
lradius 37.2882
lwrist -4.19984
lhand -15.1067 39.3731
lfingers 7.12502
lthumb 11.0619 69.0616
rfemur 25.0171 6.9423 10.3938
rtibia 63.24
rfoot 29.1506 -13.4587
rtoes 33.8595
lfemur -43.968 21.8435 -11.4934
ltibia 55.439
lfoot -8.09189 5.36054
ltoes 20.9885
580
root 3.40591 16.311 0.353904 4.11493 -24.2523 -20.5926
lowerback 7.29302 0.625242 6.63116
upperback -0.340771 1.80051 11.6345
thorax -4.68017 0.834285 8.49484
lowerneck -0.594981 -11.1687 -17.7066
upperneck 31.4667 -19.976 15.572
head 14.4486 -9.72585 6.44378
rclavicle -6.78353e-014 1.11319e-013
rhumerus -15.0501 -11.6262 -49.8534
rradius 76.4979
rwrist -18.7157
rhand -19.1046 25.7537
rfingers 7.12502
rthumb 7.20422 -4.10368
lclavicle -6.78353e-014 1.11319e-013
lhumerus -25.1327 25.1912 2.43435
lradius 38.3258
lwrist -4.3659
lhand -15.8009 39.8464
lfingers 7.12502
lthumb 10.3922 69.5696
rfemur 23.7712 7.8644 9.23874
rtibia 66.4473
rfoot 28.8985 -13.5745
rtoes 34.1645
lfemur -43.8265 21.8105 -11.7816
ltibia 58.1656
lfoot -9.77206 5.11888
ltoes 21.1159
581
root 3.36058 16.1784 0.56148 2.93021 -24.2137 -19.7081
lowerback 7.53752 0.588354 6.03782
upperback -0.1008 1.6977 11.3984
thorax -4.55983 0.796154 8.57543
lowerneck -0.514543 -11.2328 -17.3632
upperneck 31.7742 -20.055 15.1882
head 14.4892 -9.75609 6.22593
rclavicle 6.19711e-014 -9.06458e-014
rhumerus -16.761 -13.0447 -50.1006
rradius 75.898
rwrist -18.244
rhand -19.0749 26.0617
rfingers 7.12502
rthumb 7.23283 -3.79468
lclavicle 6.19711e-014 -9.06458e-014
lhumerus -25.1691 26.9455 3.32899
lradius 39.3823
lwrist -4.43255
lhand -16.3133 40.065
lfingers 7.12502
lthumb 9.8979 69.8124
rfemur 22.1373 8.74483 7.83563
rtibia 69.6404
rfoot 28.5636 -13.7969
rtoes 28.7539
lfemur -43.5238 21.6158 -12.2059
ltibia 60.628
lfoot -11.2672 4.77009
ltoes 20.2703
582
root 3.3208 16.0682 0.761034 1.60871 -24.2643 -18.6326
lowerback 8.04421 0.600457 5.31351
upperback 0.0854817 1.68672 11.1064
thorax -4.65721 0.80663 8.66439
lowerneck -0.205835 -11.2228 -17.0388
upperneck 32.039 -20.04 14.8052
head 14.4401 -9.76227 6.04453
rclavicle -6.70898e-015 -3.33958e-014
rhumerus -18.6856 -14.4253 -50.2145
rradius 75.0637
rwrist -17.7338
rhand -19.0155 26.3977
rfingers 7.12502
rthumb 7.29023 -3.45668
lclavicle -6.70898e-015 -3.33958e-014
lhumerus -25.3488 28.5118 4.49149
lradius 40.6491
lwrist -4.19883
lhand -16.7205 40.5281
lfingers 7.12502
lthumb 9.50507 70.2937
rfemur 20.1657 9.68128 6.30493
rtibia 72.6679
rfoot 28.0564 -13.8278
rtoes 31.771
lfemur -42.8159 21.4462 -12.7795
ltibia 62.6467
lfoot -12.6944 4.47125
ltoes 18.7309
583
root 3.29053 15.9698 0.961417 0.266424 -24.5134 -17.5736
lowerback 8.54212 0.626535 4.78792
upperback 0.299304 1.69693 10.7509
thorax -4.7142 0.820429 8.56414
lowerneck 0.263893 -11.094 -16.8409
upperneck 32.2732 -19.8985 14.5686
head 14.3527 -9.72785 5.98177
rclavicle 2.75317e-014 -1.27222e-014
rhumerus -20.7372 -15.6346 -50.4438
rradius 74.059
rwrist -17.2955
rhand -19.7106 26.4856
rfingers 7.12502
rthumb 6.61919 -3.39094
lclavicle 2.75317e-014 -1.27222e-014
lhumerus -25.8611 29.3018 5.73827
lradius 42.2309
lwrist -3.1721
lhand -17.3488 41.2728
lfingers 7.12502
lthumb 8.89875 71.0651
rfemur 18.0985 10.8221 4.83197
rtibia 75.3331
rfoot 27.2301 -14.5798
rtoes 33.9875
lfemur -41.7798 21.4561 -13.3611
ltibia 64.2845
lfoot -14.1816 4.33746
ltoes 18.2015
584
root 3.26862 15.8731 1.16349 -1.13931 -24.7704 -16.2448
lowerback 8.74021 0.529122 4.12055
upperback 0.660516 1.46747 10.3338
thorax -4.41801 0.712006 8.50336
lowerneck 0.582946 -10.879 -16.6332
upperneck 32.4722 -19.5628 14.2491
head 14.2246 -9.60606 5.90673
rclavicle 8.49804e-015 3.18055e-015
rhumerus -22.3172 -16.6835 -51.0513
rradius 72.7734
rwrist -16.9812
rhand -20.8563 26.3428
rfingers 7.12502
rthumb 5.51309 -3.56551
lclavicle 8.49804e-015 3.18055e-015
lhumerus -27.0162 30.2083 6.68243
lradius 43.8561
lwrist -2.0745
lhand -17.4675 41.2905
lfingers 7.12502
lthumb 8.78419 71.0877
rfemur 15.8721 11.8513 2.95978
rtibia 77.6254
rfoot 26.7861 -15.6287
rtoes 37.4199
lfemur -40.6138 21.5729 -14.3461
ltibia 65.6183
lfoot -15.543 4.43629
ltoes 18.0018
585
root 3.25365 15.7914 1.36344 -2.49232 -25.0499 -14.7971
lowerback 8.70648 0.463316 3.53016
upperback 1.11323 1.25359 9.83
thorax -3.8924 0.60396 8.2968
lowerneck 0.72656 -10.7585 -16.2473
upperneck 32.6151 -19.2976 13.7943
head 14.0845 -9.49294 5.71686
rclavicle -8.24956e-015 2.06736e-014
rhumerus -23.7082 -17.8448 -51.6909
rradius 71.2376
rwrist -16.5451
rhand -21.8406 26.1484
rfingers 7.12502
rthumb 4.56271 -3.78243
lclavicle -8.24956e-015 2.06736e-014
lhumerus -27.9808 31.8803 7.77091
lradius 45.182
lwrist -1.53081
lhand -17.0852 40.6109
lfingers 7.12502
lthumb 9.15316 70.3922
rfemur 13.1584 12.6081 0.842561
rtibia 79.6268
rfoot 24.2447 -15.8875
rtoes 35.63
lfemur -39.4191 21.8147 -15.5527
ltibia 66.65
lfoot -16.8528 4.78573
ltoes 17.0882
586
root 3.24591 15.7256 1.55121 -3.62878 -25.4696 -13.5611
lowerback 8.75572 0.537668 3.26042
upperback 1.40732 1.28962 9.37394
thorax -3.60756 0.618895 7.93468
lowerneck 1.0557 -10.6555 -16.0943
upperneck 32.8579 -19.1335 13.4723
head 14.027 -9.45017 5.61769
rclavicle 1.8487e-014 -4.13472e-014
rhumerus -25.641 -18.6775 -51.8594
rradius 69.7915
rwrist -16.2358
rhand -22.3986 25.6414
rfingers 7.12502
rthumb 4.02389 -4.30034
lclavicle 1.8487e-014 -4.13472e-014
lhumerus -28.6284 33.0144 9.44797
lradius 46.5143
lwrist -0.503328
lhand -17.1221 40.5442
lfingers 7.12502
lthumb 9.11752 70.3271
rfemur 9.87578 13.0903 -1.13575
rtibia 81.3502
rfoot 24.1224 -16.9012
rtoes 42.0718
lfemur -38.281 22.2316 -16.5742
ltibia 67.4158
lfoot -18.2426 5.14308
ltoes 16.817
